<svg xmlns="http://www.w3.org/2000/svg" xmlns:xlink="http://www.w3.org/1999/xlink" contentStyleType="text/css" data-diagram-type="CLASS" height="1705.2083px" preserveAspectRatio="none" style="width:2111px;height:1705px;" version="1.1" viewBox="0 0 2111 1705" width="2111.4583px" zoomAndPan="magnify"><?plantuml 1.2026.3beta4?><defs><linearGradient id="go95u0zq5wyq0" x1="50%" x2="50%" y1="0%" y2="100%"><stop offset="0%" stop-color="#F3F3F3"/><stop offset="100%" stop-color="#E2E2E2"/></linearGradient><linearGradient id="go95u0zq5wyq1" x1="50%" x2="50%" y1="0%" y2="100%"><stop offset="0%" stop-color="#F3F3F3"/><stop offset="100%" stop-color="#888888"/></linearGradient></defs><g><!--class Program--><g class="entity" data-qualified-name="Program" data-source-line="5" id="ent0002"><rect fill="url(#go95u0zq5wyq0)" height="197.9411" rx="7.8125" ry="7.8125" style="stroke:#F3F3F3;stroke-width:1.0417;" width="325.3586" x="1292.2708" y="17.7083"/><rect fill="url(#go95u0zq5wyq1)" height="44.5882" rx="7.8125" ry="7.8125" style="stroke:url(#go95u0zq5wyq1);stroke-width:1.0417;" width="325.3586" x="1292.2708" y="17.7083"/><rect fill="url(#go95u0zq5wyq1)" height="7.8125" style="stroke:url(#go95u0zq5wyq1);stroke-width:1.0417;" width="325.3586" x="1292.2708" y="54.484"/><rect fill="none" height="197.9411" rx="7.8125" ry="7.8125" style="stroke:#F3F3F3;stroke-width:1.0417;" width="325.3586" x="1292.2708" y="17.7083"/><ellipse cx="1415.9675" cy="40.0024" fill="#DBDBDB" rx="10.4167" ry="10.4167" style="stroke:#A8A8A8;stroke-width:1.0417;"/><path d="M1417.8718,44.4295 Q1417.4486,44.6411 1416.9766,44.755 Q1416.5046,44.869 1416,44.869 Q1414.1446,44.869 1413.168,43.6646 Q1412.2077,42.4438 1412.2077,40.1489 Q1412.2077,37.8377 1413.168,36.6333 Q1414.1446,35.4126 1416,35.4126 Q1416.5046,35.4126 1416.9766,35.5265 Q1417.4649,35.6242 1417.8718,35.8521 L1417.8718,37.854 Q1417.416,37.4308 1416.9766,37.2355 Q1416.5371,37.0239 1416.0814,37.0239 Q1415.0886,37.0239 1414.584,37.8215 Q1414.0795,38.6027 1414.0795,40.1489 Q1414.0795,41.6789 1414.584,42.4601 Q1415.0886,43.2414 1416.0814,43.2414 Q1416.5371,43.2414 1416.9766,43.0461 Q1417.416,42.8507 1417.8718,42.4276 L1417.8718,44.4295 Z " fill="#336699"/><text fill="#303030" font-family="'Verdana'" font-size="11.4583" lengthAdjust="spacing" textLength="48.7986" x="1446.1758" y="43.9692">Program</text><line style="stroke:#F3F3F3;stroke-width:1.0417;" x1="1293.3125" x2="1616.5877" y1="62.2965" y2="62.2965"/><line style="stroke:#F3F3F3;stroke-width:1.0417;" x1="1293.3125" x2="1616.5877" y1="70.6299" y2="70.6299"/><text fill="#303030" font-family="'Verdana'" font-size="11.4583" lengthAdjust="spacing" textLength="81.2881" x="1308.9375" y="95.8491">+Main() : void</text><text fill="#303030" font-family="'Verdana'" font-size="11.4583" lengthAdjust="spacing" textLength="249.8118" x="1308.9375" y="130.0207">-ShowMenu(manager : GoalManager) : void</text><text fill="#303030" font-family="'Verdana'" font-size="11.4583" lengthAdjust="spacing" textLength="283.314" x="1308.9375" y="164.1922">-CreateGoalMenu(manager : GoalManager) : void</text><text fill="#303030" font-family="'Verdana'" font-size="11.4583" lengthAdjust="spacing" textLength="292.0252" x="1308.9375" y="198.3637">-RecordEventMenu(manager : GoalManager) : void</text></g><!--class Goal--><g class="entity" data-qualified-name="Goal" data-source-line="13" id="ent0003"><rect fill="url(#go95u0zq5wyq0)" height="402.9704" rx="7.8125" ry="7.8125" style="stroke:#F3F3F3;stroke-width:1.0417;" width="338.0925" x="1095.2708" y="815.2917"/><rect fill="url(#go95u0zq5wyq1)" height="44.5882" rx="7.8125" ry="7.8125" style="stroke:url(#go95u0zq5wyq1);stroke-width:1.0417;" width="338.0925" x="1095.2708" y="815.2917"/><rect fill="url(#go95u0zq5wyq1)" height="7.8125" style="stroke:url(#go95u0zq5wyq1);stroke-width:1.0417;" width="338.0925" x="1095.2708" y="852.0674"/><rect fill="none" height="402.9704" rx="7.8125" ry="7.8125" style="stroke:#F3F3F3;stroke-width:1.0417;" width="338.0925" x="1095.2708" y="815.2917"/><ellipse cx="1236.6865" cy="837.5858" fill="#5CAD5C" rx="10.4167" ry="10.4167" style="stroke:#297A29;stroke-width:1.0417;"/><path d="M1236.2796,834.5422 L1235.4332,838.2694 L1237.1422,838.2694 L1236.2796,834.5422 Z M1235.1891,832.8983 L1237.3864,832.8983 L1239.844,842.0129 L1238.0374,842.0129 L1237.484,839.7668 L1235.0752,839.7668 L1234.5218,842.0129 L1232.7151,842.0129 L1235.1891,832.8983 Z " fill="#336699"/><text fill="#303030" font-family="'Verdana'" font-size="11.4583" font-style="italic" lengthAdjust="spacing" textLength="26.0946" x="1266.8948" y="841.5526">Goal</text><line style="stroke:#F3F3F3;stroke-width:1.0417;" x1="1096.3125" x2="1432.3217" y1="859.8799" y2="859.8799"/><text fill="#303030" font-family="'Verdana'" font-size="11.4583" lengthAdjust="spacing" textLength="86.3963" x="1111.9375" y="885.0991">-_name : string</text><text fill="#303030" font-family="'Verdana'" font-size="11.4583" lengthAdjust="spacing" textLength="117.6102" x="1111.9375" y="919.2707">-_description : string</text><text fill="#303030" font-family="'Verdana'" font-size="11.4583" lengthAdjust="spacing" textLength="71.139" x="1111.9375" y="953.4422">-_points : int</text><line style="stroke:#F3F3F3;stroke-width:1.0417;" x1="1096.3125" x2="1432.3217" y1="970.7279" y2="970.7279"/><text fill="#303030" font-family="'Verdana'" font-size="11.4583" lengthAdjust="spacing" textLength="304.7592" x="1111.9375" y="995.9471">+Goal(name : string, description : string, points : int)</text><text fill="#303030" font-family="'Verdana'" font-size="11.4583" lengthAdjust="spacing" textLength="116.8045" x="1111.9375" y="1030.1186">+GetName() : string</text><text fill="#303030" font-family="'Verdana'" font-size="11.4583" lengthAdjust="spacing" textLength="148.259" x="1111.9375" y="1064.2902">+GetDescription() : string</text><text fill="#303030" font-family="'Verdana'" font-size="11.4583" lengthAdjust="spacing" textLength="99.8744" x="1111.9375" y="1098.4617">+GetPoints() : int</text><text fill="#303030" font-family="'Verdana'" font-size="11.4583" font-style="italic" lengthAdjust="spacing" textLength="117.7556" x="1111.9375" y="1132.6333">+RecordEvent() : int</text><text fill="#303030" font-family="'Verdana'" font-size="11.4583" font-style="italic" lengthAdjust="spacing" textLength="118.7347" x="1111.9375" y="1166.8048">+IsComplete() : bool</text><text fill="#303030" font-family="'Verdana'" font-size="11.4583" font-style="italic" lengthAdjust="spacing" textLength="156.9199" x="1111.9375" y="1200.9764">+GetDetailsString() : string</text></g><!--class SimpleGoal--><g class="entity" data-qualified-name="SimpleGoal" data-source-line="27" id="ent0004"><rect fill="url(#go95u0zq5wyq0)" height="232.1126" rx="7.8125" ry="7.8125" style="stroke:#F3F3F3;stroke-width:1.0417;" width="528.6433" x="17.7083" y="1367.2292"/><rect fill="url(#go95u0zq5wyq1)" height="44.5882" rx="7.8125" ry="7.8125" style="stroke:url(#go95u0zq5wyq1);stroke-width:1.0417;" width="528.6433" x="17.7083" y="1367.2292"/><rect fill="url(#go95u0zq5wyq1)" height="7.8125" style="stroke:url(#go95u0zq5wyq1);stroke-width:1.0417;" width="528.6433" x="17.7083" y="1404.0049"/><rect fill="none" height="232.1126" rx="7.8125" ry="7.8125" style="stroke:#F3F3F3;stroke-width:1.0417;" width="528.6433" x="17.7083" y="1367.2292"/><ellipse cx="234.8368" cy="1389.5233" fill="#DBDBDB" rx="10.4167" ry="10.4167" style="stroke:#A8A8A8;stroke-width:1.0417;"/><path d="M236.7411,1393.9504 Q236.318,1394.1619 235.8459,1394.2759 Q235.3739,1394.3898 234.8694,1394.3898 Q233.0139,1394.3898 232.0374,1393.1854 Q231.0771,1391.9647 231.0771,1389.6698 Q231.0771,1387.3586 232.0374,1386.1541 Q233.0139,1384.9334 234.8694,1384.9334 Q235.3739,1384.9334 235.8459,1385.0474 Q236.3342,1385.145 236.7411,1385.3729 L236.7411,1387.3748 Q236.2854,1386.9517 235.8459,1386.7563 Q235.4065,1386.5448 234.9508,1386.5448 Q233.9579,1386.5448 233.4534,1387.3423 Q232.9488,1388.1235 232.9488,1389.6698 Q232.9488,1391.1997 233.4534,1391.981 Q233.9579,1392.7622 234.9508,1392.7622 Q235.4065,1392.7622 235.8459,1392.5669 Q236.2854,1392.3716 236.7411,1391.9484 L236.7411,1393.9504 Z " fill="#336699"/><text fill="#303030" font-family="'Verdana'" font-size="11.4583" lengthAdjust="spacing" textLength="65.2196" x="265.0452" y="1393.4901">SimpleGoal</text><line style="stroke:#F3F3F3;stroke-width:1.0417;" x1="18.75" x2="545.31" y1="1411.8174" y2="1411.8174"/><text fill="#303030" font-family="'Verdana'" font-size="11.4583" lengthAdjust="spacing" textLength="109.8612" x="34.375" y="1437.0366">-_isComplete : bool</text><line style="stroke:#F3F3F3;stroke-width:1.0417;" x1="18.75" x2="545.31" y1="1454.3223" y2="1454.3223"/><text fill="#303030" font-family="'Verdana'" font-size="11.4583" lengthAdjust="spacing" textLength="495.31" x="34.375" y="1479.5415">+SimpleGoal(name : string, description : string, points : int, isComplete : bool = false)</text><text fill="#303030" font-family="'Verdana'" font-size="11.4583" lengthAdjust="spacing" textLength="117.7556" x="34.375" y="1513.713">+RecordEvent() : int</text><text fill="#303030" font-family="'Verdana'" font-size="11.4583" lengthAdjust="spacing" textLength="118.7347" x="34.375" y="1547.8846">+IsComplete() : bool</text><text fill="#303030" font-family="'Verdana'" font-size="11.4583" lengthAdjust="spacing" textLength="156.9199" x="34.375" y="1582.0561">+GetDetailsString() : string</text></g><!--class EternalGoal--><g class="entity" data-qualified-name="EternalGoal" data-source-line="36" id="ent0005"><rect fill="url(#go95u0zq5wyq0)" height="266.2842" rx="7.8125" ry="7.8125" style="stroke:#F3F3F3;stroke-width:1.0417;" width="523.082" x="582.9896" y="1350.1458"/><rect fill="url(#go95u0zq5wyq1)" height="44.5882" rx="7.8125" ry="7.8125" style="stroke:url(#go95u0zq5wyq1);stroke-width:1.0417;" width="523.082" x="582.9896" y="1350.1458"/><rect fill="url(#go95u0zq5wyq1)" height="7.8125" style="stroke:url(#go95u0zq5wyq1);stroke-width:1.0417;" width="523.082" x="582.9896" y="1386.9215"/><rect fill="none" height="266.2842" rx="7.8125" ry="7.8125" style="stroke:#F3F3F3;stroke-width:1.0417;" width="523.082" x="582.9896" y="1350.1458"/><ellipse cx="796.4199" cy="1372.4399" fill="#DBDBDB" rx="10.4167" ry="10.4167" style="stroke:#A8A8A8;stroke-width:1.0417;"/><path d="M798.3242,1376.867 Q797.901,1377.0786 797.429,1377.1925 Q796.957,1377.3065 796.4524,1377.3065 Q794.5969,1377.3065 793.6204,1376.1021 Q792.6601,1374.8813 792.6601,1372.5864 Q792.6601,1370.2752 793.6204,1369.0708 Q794.5969,1367.8501 796.4524,1367.8501 Q796.957,1367.8501 797.429,1367.964 Q797.9173,1368.0617 798.3242,1368.2896 L798.3242,1370.2915 Q797.8684,1369.8683 797.429,1369.673 Q796.9895,1369.4614 796.5338,1369.4614 Q795.541,1369.4614 795.0364,1370.259 Q794.5318,1371.0402 794.5318,1372.5864 Q794.5318,1374.1164 795.0364,1374.8976 Q795.541,1375.6789 796.5338,1375.6789 Q796.9895,1375.6789 797.429,1375.4836 Q797.8684,1375.2882 798.3242,1374.8651 L798.3242,1376.867 Z " fill="#336699"/><text fill="#303030" font-family="'Verdana'" font-size="11.4583" lengthAdjust="spacing" textLength="67.0547" x="826.6282" y="1376.4067">EternalGoal</text><line style="stroke:#F3F3F3;stroke-width:1.0417;" x1="584.0313" x2="1105.0299" y1="1394.734" y2="1394.734"/><text fill="#303030" font-family="'Verdana'" font-size="11.4583" lengthAdjust="spacing" textLength="122.433" x="599.6563" y="1419.9533">-_timesRecorded : int</text><line style="stroke:#F3F3F3;stroke-width:1.0417;" x1="584.0313" x2="1105.0299" y1="1437.2389" y2="1437.2389"/><text fill="#303030" font-family="'Verdana'" font-size="11.4583" lengthAdjust="spacing" textLength="489.7486" x="599.6563" y="1462.4582">+EternalGoal(name : string, description : string, points : int, timesRecorded : int = 0)</text><text fill="#303030" font-family="'Verdana'" font-size="11.4583" lengthAdjust="spacing" textLength="117.7556" x="599.6563" y="1496.6297">+RecordEvent() : int</text><text fill="#303030" font-family="'Verdana'" font-size="11.4583" lengthAdjust="spacing" textLength="118.7347" x="599.6563" y="1530.8012">+IsComplete() : bool</text><text fill="#303030" font-family="'Verdana'" font-size="11.4583" lengthAdjust="spacing" textLength="156.9199" x="599.6563" y="1564.9728">+GetDetailsString() : string</text><text fill="#303030" font-family="'Verdana'" font-size="11.4583" lengthAdjust="spacing" textLength="154.0385" x="599.6563" y="1599.1443">+GetTimesRecorded() : int</text></g><!--class ChecklistGoal--><g class="entity" data-qualified-name="ChecklistGoal" data-source-line="48" id="ent0006"><rect fill="url(#go95u0zq5wyq0)" height="402.9704" rx="7.8125" ry="7.8125" style="stroke:#F3F3F3;stroke-width:1.0417;" width="736.0011" x="1142.1563" y="1281.8021"/><rect fill="url(#go95u0zq5wyq1)" height="44.5882" rx="7.8125" ry="7.8125" style="stroke:url(#go95u0zq5wyq1);stroke-width:1.0417;" width="736.0011" x="1142.1563" y="1281.8021"/><rect fill="url(#go95u0zq5wyq1)" height="7.8125" style="stroke:url(#go95u0zq5wyq1);stroke-width:1.0417;" width="736.0011" x="1142.1563" y="1318.5778"/><rect fill="none" height="402.9704" rx="7.8125" ry="7.8125" style="stroke:#F3F3F3;stroke-width:1.0417;" width="736.0011" x="1142.1563" y="1281.8021"/><ellipse cx="1456.4876" cy="1304.0962" fill="#DBDBDB" rx="10.4167" ry="10.4167" style="stroke:#A8A8A8;stroke-width:1.0417;"/><path d="M1458.3919,1308.5233 Q1457.9687,1308.7349 1457.4967,1308.8488 Q1457.0247,1308.9627 1456.5201,1308.9627 Q1454.6646,1308.9627 1453.6881,1307.7583 Q1452.7278,1306.5376 1452.7278,1304.2427 Q1452.7278,1301.9315 1453.6881,1300.7271 Q1454.6646,1299.5063 1456.5201,1299.5063 Q1457.0247,1299.5063 1457.4967,1299.6203 Q1457.985,1299.7179 1458.3919,1299.9458 L1458.3919,1301.9478 Q1457.9361,1301.5246 1457.4967,1301.3293 Q1457.0572,1301.1177 1456.6015,1301.1177 Q1455.6087,1301.1177 1455.1041,1301.9152 Q1454.5995,1302.6965 1454.5995,1304.2427 Q1454.5995,1305.7726 1455.1041,1306.5539 Q1455.6087,1307.3351 1456.6015,1307.3351 Q1457.0572,1307.3351 1457.4967,1307.1398 Q1457.9361,1306.9445 1458.3919,1306.5213 L1458.3919,1308.5233 Z " fill="#336699"/><text fill="#303030" font-family="'Verdana'" font-size="11.4583" lengthAdjust="spacing" textLength="78.1718" x="1486.6959" y="1308.063">ChecklistGoal</text><line style="stroke:#F3F3F3;stroke-width:1.0417;" x1="1143.1979" x2="1877.1157" y1="1326.3903" y2="1326.3903"/><text fill="#303030" font-family="'Verdana'" font-size="11.4583" lengthAdjust="spacing" textLength="142.6529" x="1158.8229" y="1351.6095">-_amountCompleted : int</text><text fill="#303030" font-family="'Verdana'" font-size="11.4583" lengthAdjust="spacing" textLength="116.0156" x="1158.8229" y="1385.7811">-_targetAmount : int</text><text fill="#303030" font-family="'Verdana'" font-size="11.4583" lengthAdjust="spacing" textLength="70.725" x="1158.8229" y="1419.9526">-_bonus : int</text><line style="stroke:#F3F3F3;stroke-width:1.0417;" x1="1143.1979" x2="1877.1157" y1="1437.2383" y2="1437.2383"/><text fill="#303030" font-family="'Verdana'" font-size="11.4583" lengthAdjust="spacing" textLength="702.6677" x="1158.8229" y="1462.4575">+ChecklistGoal(name : string, description : string, points : int, targetAmount : int, bonus : int, amountCompleted : int = 0)</text><text fill="#303030" font-family="'Verdana'" font-size="11.4583" lengthAdjust="spacing" textLength="117.7556" x="1158.8229" y="1496.629">+RecordEvent() : int</text><text fill="#303030" font-family="'Verdana'" font-size="11.4583" lengthAdjust="spacing" textLength="118.7347" x="1158.8229" y="1530.8006">+IsComplete() : bool</text><text fill="#303030" font-family="'Verdana'" font-size="11.4583" lengthAdjust="spacing" textLength="156.9199" x="1158.8229" y="1564.9721">+GetDetailsString() : string</text><text fill="#303030" font-family="'Verdana'" font-size="11.4583" lengthAdjust="spacing" textLength="172.5688" x="1158.8229" y="1599.1437">+GetAmountCompleted() : int</text><text fill="#303030" font-family="'Verdana'" font-size="11.4583" lengthAdjust="spacing" textLength="147.6212" x="1158.8229" y="1633.3152">+GetTargetAmount() : int</text><text fill="#303030" font-family="'Verdana'" font-size="11.4583" lengthAdjust="spacing" textLength="100.4115" x="1158.8229" y="1667.4868">+GetBonus() : int</text></g><!--class GoalManager--><g class="entity" data-qualified-name="GoalManager" data-source-line="61" id="ent0007"><rect fill="url(#go95u0zq5wyq0)" height="437.1419" rx="7.8125" ry="7.8125" style="stroke:#F3F3F3;stroke-width:1.0417;" width="304.7806" x="1111.9271" y="279.1875"/><rect fill="url(#go95u0zq5wyq1)" height="44.5882" rx="7.8125" ry="7.8125" style="stroke:url(#go95u0zq5wyq1);stroke-width:1.0417;" width="304.7806" x="1111.9271" y="279.1875"/><rect fill="url(#go95u0zq5wyq1)" height="7.8125" style="stroke:url(#go95u0zq5wyq1);stroke-width:1.0417;" width="304.7806" x="1111.9271" y="315.9632"/><rect fill="none" height="437.1419" rx="7.8125" ry="7.8125" style="stroke:#F3F3F3;stroke-width:1.0417;" width="304.7806" x="1111.9271" y="279.1875"/><ellipse cx="1211.5741" cy="301.4816" fill="#DBDBDB" rx="10.4167" ry="10.4167" style="stroke:#A8A8A8;stroke-width:1.0417;"/><path d="M1213.4784,305.9087 Q1213.0552,306.1203 1212.5832,306.2342 Q1212.1112,306.3481 1211.6066,306.3481 Q1209.7512,306.3481 1208.7746,305.1437 Q1207.8143,303.923 1207.8143,301.6281 Q1207.8143,299.3169 1208.7746,298.1125 Q1209.7512,296.8918 1211.6066,296.8918 Q1212.1112,296.8918 1212.5832,297.0057 Q1213.0715,297.1034 1213.4784,297.3312 L1213.4784,299.3332 Q1213.0227,298.91 1212.5832,298.7147 Q1212.1438,298.5031 1211.688,298.5031 Q1210.6952,298.5031 1210.1906,299.3006 Q1209.6861,300.0819 1209.6861,301.6281 Q1209.6861,303.158 1210.1906,303.9393 Q1210.6952,304.7205 1211.688,304.7205 Q1212.1438,304.7205 1212.5832,304.5252 Q1213.0227,304.3299 1213.4784,303.9067 L1213.4784,305.9087 Z " fill="#336699"/><text fill="#303030" font-family="'Verdana'" font-size="11.4583" lengthAdjust="spacing" textLength="76.3199" x="1241.7824" y="305.4484">GoalManager</text><line style="stroke:#F3F3F3;stroke-width:1.0417;" x1="1112.9688" x2="1415.666" y1="323.7757" y2="323.7757"/><text fill="#303030" font-family="'Verdana'" font-size="11.4583" lengthAdjust="spacing" textLength="116.7933" x="1128.5938" y="348.9949">-_goals : List~Goal~</text><text fill="#303030" font-family="'Verdana'" font-size="11.4583" lengthAdjust="spacing" textLength="66.9876" x="1128.5938" y="383.1665">-_score : int</text><line style="stroke:#F3F3F3;stroke-width:1.0417;" x1="1112.9688" x2="1415.666" y1="400.4521" y2="400.4521"/><text fill="#303030" font-family="'Verdana'" font-size="11.4583" lengthAdjust="spacing" textLength="164.1429" x="1128.5938" y="425.6714">+AddGoal(goal : Goal) : void</text><text fill="#303030" font-family="'Verdana'" font-size="11.4583" lengthAdjust="spacing" textLength="147.4981" x="1128.5938" y="459.8429">+GetGoals() : List~Goal~</text><text fill="#303030" font-family="'Verdana'" font-size="11.4583" lengthAdjust="spacing" textLength="97.3902" x="1128.5938" y="494.0145">+GetScore() : int</text><text fill="#303030" font-family="'Verdana'" font-size="11.4583" lengthAdjust="spacing" textLength="95.4936" x="1128.5938" y="528.186">+GetLevel() : int</text><text fill="#303030" font-family="'Verdana'" font-size="11.4583" lengthAdjust="spacing" textLength="171.226" x="1128.5938" y="562.3576">+GetPointsToNextLevel() : int</text><text fill="#303030" font-family="'Verdana'" font-size="11.4583" lengthAdjust="spacing" textLength="153.5126" x="1128.5938" y="596.5291">+DisplayPlayerInfo() : void</text><text fill="#303030" font-family="'Verdana'" font-size="11.4583" lengthAdjust="spacing" textLength="139.7827" x="1128.5938" y="630.7007">+ListGoalDetails() : void</text><text fill="#303030" font-family="'Verdana'" font-size="11.4583" lengthAdjust="spacing" textLength="200.0732" x="1128.5938" y="664.8722">+RecordEvent(goalIndex : int) : int</text><text fill="#303030" font-family="'Verdana'" font-size="11.4583" lengthAdjust="spacing" textLength="271.4472" x="1128.5938" y="699.0438">+SetData(score : int, goals : List~Goal~) : void</text></g><!--class GoalFileHandler--><g class="entity" data-qualified-name="GoalFileHandler" data-source-line="76" id="ent0008"><rect fill="url(#go95u0zq5wyq0)" height="197.9411" rx="7.8125" ry="7.8125" style="stroke:#F3F3F3;stroke-width:1.0417;" width="387.999" x="1453.6563" y="398.7917"/><rect fill="url(#go95u0zq5wyq1)" height="44.5882" rx="7.8125" ry="7.8125" style="stroke:url(#go95u0zq5wyq1);stroke-width:1.0417;" width="387.999" x="1453.6563" y="398.7917"/><rect fill="url(#go95u0zq5wyq1)" height="7.8125" style="stroke:url(#go95u0zq5wyq1);stroke-width:1.0417;" width="387.999" x="1453.6563" y="435.5674"/><rect fill="none" height="197.9411" rx="7.8125" ry="7.8125" style="stroke:#F3F3F3;stroke-width:1.0417;" width="387.999" x="1453.6563" y="398.7917"/><ellipse cx="1587.4629" cy="421.0858" fill="#DBDBDB" rx="10.4167" ry="10.4167" style="stroke:#A8A8A8;stroke-width:1.0417;"/><path d="M1589.3672,425.5129 Q1588.944,425.7244 1588.472,425.8384 Q1588,425.9523 1587.4954,425.9523 Q1585.6399,425.9523 1584.6634,424.7479 Q1583.7031,423.5272 1583.7031,421.2323 Q1583.7031,418.9211 1584.6634,417.7166 Q1585.6399,416.4959 1587.4954,416.4959 Q1588,416.4959 1588.472,416.6099 Q1588.9603,416.7075 1589.3672,416.9354 L1589.3672,418.9373 Q1588.9114,418.5142 1588.472,418.3188 Q1588.0325,418.1073 1587.5768,418.1073 Q1586.584,418.1073 1586.0794,418.9048 Q1585.5748,419.686 1585.5748,421.2323 Q1585.5748,422.7622 1586.0794,423.5435 Q1586.584,424.3247 1587.5768,424.3247 Q1588.0325,424.3247 1588.472,424.1294 Q1588.9114,423.9341 1589.3672,423.5109 L1589.3672,425.5129 Z " fill="#336699"/><text fill="#303030" font-family="'Verdana'" font-size="11.4583" lengthAdjust="spacing" textLength="91.2191" x="1617.6712" y="425.0526">GoalFileHandler</text><line style="stroke:#F3F3F3;stroke-width:1.0417;" x1="1454.6979" x2="1840.6135" y1="443.3799" y2="443.3799"/><line style="stroke:#F3F3F3;stroke-width:1.0417;" x1="1454.6979" x2="1840.6135" y1="451.7132" y2="451.7132"/><text fill="#303030" font-family="'Verdana'" font-size="11.4583" lengthAdjust="spacing" textLength="354.6656" x="1470.3229" y="476.9324">+Save(filename : string, score : int, goals : List~Goal~) : void</text><text fill="#303030" font-family="'Verdana'" font-size="11.4583" lengthAdjust="spacing" textLength="206.8431" x="1470.3229" y="511.104">+Load(filename : string) : SaveData</text><text fill="#303030" font-family="'Verdana'" font-size="11.4583" lengthAdjust="spacing" textLength="180.7709" x="1470.3229" y="545.2755">-ToData(goal : Goal) : GoalData</text><text fill="#303030" font-family="'Verdana'" font-size="11.4583" lengthAdjust="spacing" textLength="261.9751" x="1470.3229" y="579.4471">-CreateGoalFromData(data : GoalData) : Goal</text></g><!--class SaveData--><g class="entity" data-qualified-name="SaveData" data-source-line="83" id="ent0009"><rect fill="url(#go95u0zq5wyq0)" height="129.598" rx="7.8125" ry="7.8125" style="stroke:#F3F3F3;stroke-width:1.0417;" width="178.8284" x="1513.4479" y="951.9792"/><rect fill="url(#go95u0zq5wyq1)" height="44.5882" rx="7.8125" ry="7.8125" style="stroke:url(#go95u0zq5wyq1);stroke-width:1.0417;" width="178.8284" x="1513.4479" y="951.9792"/><rect fill="url(#go95u0zq5wyq1)" height="7.8125" style="stroke:url(#go95u0zq5wyq1);stroke-width:1.0417;" width="178.8284" x="1513.4479" y="988.7549"/><rect fill="none" height="129.598" rx="7.8125" ry="7.8125" style="stroke:#F3F3F3;stroke-width:1.0417;" width="178.8284" x="1513.4479" y="951.9792"/><ellipse cx="1560.5365" cy="974.2733" fill="#DBDBDB" rx="10.4167" ry="10.4167" style="stroke:#A8A8A8;stroke-width:1.0417;"/><path d="M1562.4408,978.7004 Q1562.0177,978.9119 1561.5457,979.0259 Q1561.0736,979.1398 1560.5691,979.1398 Q1558.7136,979.1398 1557.7371,977.9354 Q1556.7768,976.7147 1556.7768,974.4198 Q1556.7768,972.1086 1557.7371,970.9041 Q1558.7136,969.6834 1560.5691,969.6834 Q1561.0736,969.6834 1561.5457,969.7974 Q1562.0339,969.895 1562.4408,970.1229 L1562.4408,972.1248 Q1561.9851,971.7017 1561.5457,971.5063 Q1561.1062,971.2948 1560.6505,971.2948 Q1559.6576,971.2948 1559.1531,972.0923 Q1558.6485,972.8735 1558.6485,974.4198 Q1558.6485,975.9497 1559.1531,976.731 Q1559.6576,977.5122 1560.6505,977.5122 Q1561.1062,977.5122 1561.5457,977.3169 Q1561.9851,977.1216 1562.4408,976.6984 L1562.4408,978.7004 Z " fill="#336699"/><text fill="#303030" font-family="'Verdana'" font-size="11.4583" lengthAdjust="spacing" textLength="55.4845" x="1590.7449" y="978.2401">SaveData</text><line style="stroke:#F3F3F3;stroke-width:1.0417;" x1="1514.4896" x2="1691.2347" y1="996.5674" y2="996.5674"/><text fill="#303030" font-family="'Verdana'" font-size="11.4583" lengthAdjust="spacing" textLength="68.0283" x="1530.1146" y="1021.7866">+Score : int</text><text fill="#303030" font-family="'Verdana'" font-size="11.4583" lengthAdjust="spacing" textLength="145.4951" x="1530.1146" y="1055.9582">+Goals : List~GoalData~</text><line style="stroke:#F3F3F3;stroke-width:1.0417;" x1="1514.4896" x2="1691.2347" y1="1073.2438" y2="1073.2438"/></g><!--class GoalTypes--><g class="entity" data-qualified-name="GoalTypes" data-source-line="89" id="ent0010"><rect fill="url(#go95u0zq5wyq0)" height="195.516" rx="7.8125" ry="7.8125" style="stroke:#F3F3F3;stroke-width:1.0417;" width="218.5521" x="1729" y="919.0208"/><rect fill="url(#go95u0zq5wyq1)" height="76.3346" rx="7.8125" ry="7.8125" style="stroke:url(#go95u0zq5wyq1);stroke-width:1.0417;" width="218.5521" x="1729" y="919.0208"/><rect fill="url(#go95u0zq5wyq1)" height="7.8125" style="stroke:url(#go95u0zq5wyq1);stroke-width:1.0417;" width="218.5521" x="1729" y="987.543"/><rect fill="none" height="195.516" rx="7.8125" ry="7.8125" style="stroke:#F3F3F3;stroke-width:1.0417;" width="218.5521" x="1729" y="919.0208"/><ellipse cx="1793.609" cy="957.1882" fill="#DBDBDB" rx="10.4167" ry="10.4167" style="stroke:#A8A8A8;stroke-width:1.0417;"/><path d="M1795.5133,961.6152 Q1795.0901,961.8268 1794.6181,961.9408 Q1794.1461,962.0547 1793.6416,962.0547 Q1791.7861,962.0547 1790.8095,960.8503 Q1789.8493,959.6296 1789.8493,957.3346 Q1789.8493,955.0234 1790.8095,953.819 Q1791.7861,952.5983 1793.6416,952.5983 Q1794.1461,952.5983 1794.6181,952.7122 Q1795.1064,952.8099 1795.5133,953.0378 L1795.5133,955.0397 Q1795.0576,954.6165 1794.6181,954.4212 Q1794.1787,954.2096 1793.723,954.2096 Q1792.7301,954.2096 1792.2256,955.0072 Q1791.721,955.7884 1791.721,957.3346 Q1791.721,958.8646 1792.2256,959.6458 Q1792.7301,960.4271 1793.723,960.4271 Q1794.1787,960.4271 1794.6181,960.2318 Q1795.0576,960.0365 1795.5133,959.6133 L1795.5133,961.6152 Z " fill="#336699"/><text fill="#303030" font-family="Verdana" font-size="9.375" font-style="italic" lengthAdjust="spacing" textLength="38.1271" x="1834.8375" y="943.3479">&#171;utility&#187;</text><text fill="#303030" font-family="'Verdana'" font-size="11.4583" lengthAdjust="spacing" textLength="60.1674" x="1823.8174" y="977.0281">GoalTypes</text><line style="stroke:#F3F3F3;stroke-width:1.0417;" x1="1730.0417" x2="1946.5105" y1="995.3555" y2="995.3555"/><text fill="#303030" font-family="'Verdana'" font-size="11.4583" lengthAdjust="spacing" text-decoration="underline" textLength="159.3145" x="1745.6667" y="1020.5747">+Simple : string = "Simple"</text><text fill="#303030" font-family="'Verdana'" font-size="11.4583" lengthAdjust="spacing" text-decoration="underline" textLength="162.9847" x="1745.6667" y="1054.7462">+Eternal : string = "Eternal"</text><text fill="#303030" font-family="'Verdana'" font-size="11.4583" lengthAdjust="spacing" text-decoration="underline" textLength="185.2188" x="1745.6667" y="1088.9178">+Checklist : string = "Checklist"</text><line style="stroke:#F3F3F3;stroke-width:1.0417;" x1="1730.0417" x2="1946.5105" y1="1106.2035" y2="1106.2035"/></g><!--class GoalData--><g class="entity" data-qualified-name="GoalData" data-source-line="95" id="ent0011"><rect fill="url(#go95u0zq5wyq0)" height="334.6273" rx="7.8125" ry="7.8125" style="stroke:#F3F3F3;stroke-width:1.0417;" width="176.5401" x="1914.5938" y="1315.9688"/><rect fill="url(#go95u0zq5wyq1)" height="44.5882" rx="7.8125" ry="7.8125" style="stroke:url(#go95u0zq5wyq1);stroke-width:1.0417;" width="176.5401" x="1914.5938" y="1315.9688"/><rect fill="url(#go95u0zq5wyq1)" height="7.8125" style="stroke:url(#go95u0zq5wyq1);stroke-width:1.0417;" width="176.5401" x="1914.5938" y="1352.7445"/><rect fill="none" height="334.6273" rx="7.8125" ry="7.8125" style="stroke:#F3F3F3;stroke-width:1.0417;" width="176.5401" x="1914.5938" y="1315.9688"/><ellipse cx="1961.5537" cy="1338.2629" fill="#DBDBDB" rx="10.4167" ry="10.4167" style="stroke:#A8A8A8;stroke-width:1.0417;"/><path d="M1963.458,1342.6899 Q1963.0348,1342.9015 1962.5628,1343.0155 Q1962.0908,1343.1294 1961.5862,1343.1294 Q1959.7308,1343.1294 1958.7542,1341.925 Q1957.7939,1340.7043 1957.7939,1338.4093 Q1957.7939,1336.0981 1958.7542,1334.8937 Q1959.7308,1333.673 1961.5862,1333.673 Q1962.0908,1333.673 1962.5628,1333.7869 Q1963.0511,1333.8846 1963.458,1334.1125 L1963.458,1336.1144 Q1963.0023,1335.6912 1962.5628,1335.4959 Q1962.1234,1335.2843 1961.6676,1335.2843 Q1960.6748,1335.2843 1960.1702,1336.0819 Q1959.6657,1336.8631 1959.6657,1338.4093 Q1959.6657,1339.9393 1960.1702,1340.7205 Q1960.6748,1341.5018 1961.6676,1341.5018 Q1962.1234,1341.5018 1962.5628,1341.3065 Q1963.0023,1341.1112 1963.458,1340.688 L1963.458,1342.6899 Z " fill="#336699"/><text fill="#303030" font-family="'Verdana'" font-size="11.4583" lengthAdjust="spacing" textLength="53.4536" x="1991.762" y="1342.2296">GoalData</text><line style="stroke:#F3F3F3;stroke-width:1.0417;" x1="1915.6354" x2="2090.0922" y1="1360.557" y2="1360.557"/><text fill="#303030" font-family="'Verdana'" font-size="11.4583" lengthAdjust="spacing" textLength="81.7413" x="1931.2604" y="1385.7762">+Type : string</text><text fill="#303030" font-family="'Verdana'" font-size="11.4583" lengthAdjust="spacing" textLength="87.4425" x="1931.2604" y="1419.9477">+Name : string</text><text fill="#303030" font-family="'Verdana'" font-size="11.4583" lengthAdjust="spacing" textLength="118.897" x="1931.2604" y="1454.1193">+Description : string</text><text fill="#303030" font-family="'Verdana'" font-size="11.4583" lengthAdjust="spacing" textLength="70.5124" x="1931.2604" y="1488.2908">+Points : int</text><text fill="#303030" font-family="'Verdana'" font-size="11.4583" lengthAdjust="spacing" textLength="109.7941" x="1931.2604" y="1522.4624">+IsComplete : bool</text><text fill="#303030" font-family="'Verdana'" font-size="11.4583" lengthAdjust="spacing" textLength="143.2068" x="1931.2604" y="1556.6339">+AmountCompleted : int</text><text fill="#303030" font-family="'Verdana'" font-size="11.4583" lengthAdjust="spacing" textLength="118.2592" x="1931.2604" y="1590.8055">+TargetAmount : int</text><text fill="#303030" font-family="'Verdana'" font-size="11.4583" lengthAdjust="spacing" textLength="71.0495" x="1931.2604" y="1624.977">+Bonus : int</text><line style="stroke:#F3F3F3;stroke-width:1.0417;" x1="1915.6354" x2="2090.0922" y1="1642.2627" y2="1642.2627"/></g><!--reverse link Goal to SimpleGoal--><g class="link" data-entity-1="ent0003" data-entity-2="ent0004" data-link-type="extension" data-source-line="107" id="lnk12"><path codeLine="107" d="M1077.1564,1073.8087 C932.0209,1120.0691 737.4583,1189.6667 564.3229,1281.8021 C518.5521,1306.1563 471.5833,1336.8542 429.4167,1366.8542" fill="none" id="Goal-backto-SimpleGoal" style="stroke:#E2E2E2;stroke-width:3.125;"/><polygon fill="none" points="1095.0208,1068.1146,1075.2583,1067.8539,1079.0544,1079.7635,1095.0208,1068.1146" style="stroke:#E2E2E2;stroke-width:3.125;"/></g><!--reverse link Goal to EternalGoal--><g class="link" data-entity-1="ent0003" data-entity-2="ent0005" data-link-type="extension" data-source-line="108" id="lnk13"><path codeLine="108" d="M1082.2099,1219.2862 C1038.5224,1267.63 1004.9792,1304.7292 964.4063,1349.625" fill="none" id="Goal-backto-EternalGoal" style="stroke:#E2E2E2;stroke-width:3.125;"/><polygon fill="none" points="1094.7813,1205.375,1077.5728,1215.0958,1086.847,1223.4767,1094.7813,1205.375" style="stroke:#E2E2E2;stroke-width:3.125;"/></g><!--reverse link Goal to ChecklistGoal--><g class="link" data-entity-1="ent0003" data-entity-2="ent0006" data-link-type="extension" data-source-line="109" id="lnk14"><path codeLine="109" d="M1379.3089,1235.0532 C1390.3401,1255.9074 1392.8021,1260.5313 1403.8333,1281.3854" fill="none" id="Goal-backto-ChecklistGoal" style="stroke:#E2E2E2;stroke-width:3.125;"/><polygon fill="none" points="1370.5417,1218.4792,1373.7842,1237.9756,1384.8335,1232.1308,1370.5417,1218.4792" style="stroke:#E2E2E2;stroke-width:3.125;"/></g><!--reverse link GoalManager to Goal--><g class="link" data-entity-1="ent0007" data-entity-2="ent0003" data-link-type="aggregation" data-source-line="112" id="lnk15"><path codeLine="112" d="M1264.3229,729.0313 C1264.3229,761.7292 1264.3229,782.8125 1264.3229,815.1354" fill="none" id="GoalManager-backto-Goal" style="stroke:#E2E2E2;stroke-width:3.125;"/><polygon fill="none" points="1264.3229,716.5313,1260.1563,722.7813,1264.3229,729.0313,1268.4896,722.7813,1264.3229,716.5313" style="stroke:#E2E2E2;stroke-width:3.125;"/></g><!--link Program to GoalManager--><g class="link" data-entity-1="ent0002" data-entity-2="ent0007" data-link-type="dependency" data-source-line="115" id="lnk16"><path codeLine="115" d="M1405.6042,215.8125 C1395.6771,235.5521 1387.6828,251.4474 1376.6203,273.4474" fill="none" id="Program-to-GoalManager" style="stroke:#E2E2E2;stroke-width:3.125;"/><polygon fill="#E2E2E2" points="1373.8125,279.0313,1381.7467,272.5274,1376.1523,274.3781,1374.3016,268.7837,1373.8125,279.0313" style="stroke:#E2E2E2;stroke-width:3.125;"/></g><!--link Program to GoalFileHandler--><g class="link" data-entity-1="ent0002" data-entity-2="ent0008" data-link-type="dependency" data-source-line="116" id="lnk17"><path codeLine="116" d="M1504.8229,215.8125 C1533.375,271.9583 1566.2503,336.6165 1594.8232,392.804" fill="none" id="Program-to-GoalFileHandler" style="stroke:#E2E2E2;stroke-width:3.125;"/><polygon fill="#E2E2E2" points="1597.6563,398.375,1597.1207,388.1298,1595.2954,393.7325,1589.6927,391.9071,1597.6563,398.375" style="stroke:#E2E2E2;stroke-width:3.125;"/></g><!--link GoalFileHandler to Goal--><g class="link" data-entity-1="ent0008" data-entity-2="ent0003" data-link-type="dependency" data-source-line="119" id="lnk18"><path codeLine="119" d="M1574.6458,597.25 C1529.0313,658.7604 1472.3478,735.1985 1416.9624,809.886" fill="none" id="GoalFileHandler-to-Goal" style="stroke:#E2E2E2;stroke-width:3.125;stroke-dasharray:7.2917,7.2917;"/><polygon fill="#E2E2E2" points="1413.2396,814.9063,1422.1707,809.8577,1416.3419,810.7227,1415.477,804.894,1413.2396,814.9063" style="stroke:#E2E2E2;stroke-width:3.125;"/><text fill="#303030" font-family="'Verdana'" font-size="12.5" lengthAdjust="spacing" textLength="34.9365" x="1467.4479" y="770.6444">reads</text></g><!--link GoalFileHandler to GoalData--><g class="link" data-entity-1="ent0008" data-entity-2="ent0011" data-link-type="dependency" data-source-line="120" id="lnk19"><path codeLine="120" d="M1785.7083,596.9271 C1852.5,652.6875 1926.4792,728.625 1965.3646,815.2917 C2036.5729,974.0104 2037.7285,1169.48 2026.0514,1309.3029" fill="none" id="GoalFileHandler-to-GoalData" style="stroke:#E2E2E2;stroke-width:3.125;"/><polygon fill="#E2E2E2" points="2025.5313,1315.5313,2030.4637,1306.5355,2025.9647,1310.341,2022.1593,1305.842,2025.5313,1315.5313" style="stroke:#E2E2E2;stroke-width:3.125;"/></g><!--link GoalFileHandler to SaveData--><g class="link" data-entity-1="ent0008" data-entity-2="ent0009" data-link-type="dependency" data-source-line="121" id="lnk20"><path codeLine="121" d="M1639.125,597.25 C1630.1042,701.3854 1616.6644,856.44 1608.9665,945.3046" fill="none" id="GoalFileHandler-to-SaveData" style="stroke:#E2E2E2;stroke-width:3.125;"/><polygon fill="#E2E2E2" points="1608.4271,951.5313,1613.3873,942.5508,1608.8766,946.3423,1605.085,941.8316,1608.4271,951.5313" style="stroke:#E2E2E2;stroke-width:3.125;"/></g><!--link GoalFileHandler to GoalTypes--><g class="link" data-entity-1="ent0008" data-entity-2="ent0010" data-link-type="dependency" data-source-line="122" id="lnk21"><path codeLine="122" d="M1683.9583,597.25 C1717.9896,689.5208 1766.3894,820.7924 1800.2748,912.6674" fill="none" id="GoalFileHandler-to-GoalTypes" style="stroke:#E2E2E2;stroke-width:3.125;stroke-dasharray:7.2917,7.2917;"/><polygon fill="#E2E2E2" points="1802.4375,918.5313,1803.1027,908.2936,1800.6352,913.6447,1795.2842,911.1772,1802.4375,918.5313" style="stroke:#E2E2E2;stroke-width:3.125;"/><text fill="#303030" font-family="'Verdana'" font-size="12.5" lengthAdjust="spacing" textLength="28.6377" x="1759.1146" y="770.6444">uses</text></g><!--reverse link SaveData to GoalData--><g class="link" data-entity-1="ent0009" data-entity-2="ent0011" data-link-type="aggregation" data-source-line="125" id="lnk22"><path codeLine="125" d="M1627.9384,1093.5869 C1645.0322,1137.5244 1668.9375,1182.4688 1711.1979,1218.2604 C1777.6667,1274.5625 1830.3646,1225.2292 1896.6146,1281.8021 C1908.2917,1291.7708 1918.8854,1303.3646 1928.4375,1315.8438" fill="none" id="SaveData-backto-GoalData" style="stroke:#E2E2E2;stroke-width:3.125;"/><polygon fill="none" points="1623.4063,1081.9375,1621.7892,1089.2729,1627.9384,1093.5869,1629.5555,1086.2515,1623.4063,1081.9375" style="stroke:#E2E2E2;stroke-width:3.125;"/></g><?plantuml-src jLTDJYD75DxtALx8OeomHvDCaeL5a1WO9fQ0eDYHiekgknzsYUeggwhQm13G769kaIDaDqV9IVBgfzlLRJiXesI1aTz_VU_NNzW5LWY2pnTshjbzPcwuN3BDAYW4C-ROMitpskAaK7BAtoEyohBCi-1AgxaJVCW03k22SJdOXp6i52-9CeBfGjrUeAm75PDiZffuxnGJ5-5RH_H48xFekSzJ-0aBfSktAvJs6HgFMVO2PignJfbb5AR6IgsmX3y_V0I3cZF1tpFBbOGSXP9p0rPvKsTSu0zCbWBr4AIoG811gIfwBLIgH96nt5ZD2Xi0yqeUaX7yAXbXEmRYSpaFf19DeVdIk-fobefBQuX8_poYpjAWOs88szI7aAhk1rsqbwJf4z8wyUJJjOKjt2jloJEQC1wQ1pwcgEyIcPWJLIq5sk0xLqhqHNmGbd5Xfjvt6iRkJ5rhLS6KEziUOfUvNe90tKfAt88RojHjhD949MQ5jo6c0Qxb_ZtcGzYm2T_3DHC6Gpfs0RSBhN-4w6po2tmrXkEo96Wihz045_GjT2-LBtKigTI5LHgC0g6OOy_fXGOAvYgTm6s5i8o0lRMe9HCfObq7w_0JqSy1ROjPWktLVmzPvCzIVwtH5i-lnt36KPI4peB9ULDpNy9WgPL51z6-mtNa27n50slVLw5KOEhSWuS6be99IM06cw-R7CtH4bZ69Q9VjIuNDFzAYfPimYst2rLRo8b6mtWEA0ksDBNmyodQ_MRyD_FCPOAK3K7F3B2SE36t9miiRWGtDiqkgrGjROFgEhykyKnJuCTU8ANdIjRfgEhO_QnIs70qXCJ94BO6-RzMot7NOyUiAwOauZxlZOiyBR3rQeYhgS4-TECOpWcx9yT_2dH3py74A1MHXzR9noMNx4FlrD62quunpviwS_qept65eayC2s2cBl5kYy0fDrJVzrVqXteYhzMW4yLvh808RPUPfiWzOo9Bl8ixAt4nfSoucauG6C8cJDtTxbhYs_56Pz4M23jXfcAV42CvDiweloF3DGuJedSC2BwYbbwWnYI5gOTm-qpP2WVNHEvL_dFVuB6ZyRnfmuauwovANndn9RqwQ2P1xvXgtrVIHoBMgAnBi_7HFAXNVk_wiJlPfpNstutXq--rvOBR-qz_q3RqPn8PeGLZuUUBSteEWQZi_HBXclOHyyEE5s59CJS9V209p3EIDN1u6CqU7SNO7eBcOzpOBLGq3FO2QQyh5xTKHp3IUfBj6El8jjIzRYidUBbOkmFaidVwKUzil_mEuAf_-4ss7YZ7EyOqUTysfG_WJJAaVQOcaYgP4ze5Pdu17Fus6YM7Jq9CDdj2xOnvPp6TQBxHVA4CuOOwpnrXT8iHXhI1Q9-vsZPPHuDCDfQQ7nDA5mjqbwAbvETam7Scjoz2IIafxkEXRHVCHaTU3kyeiAonCneTfT5jq9CczaMSzBJRnV6E3njvnLcplsblQLNM1IObS3hxCRmhDVBoPV13-7jx6m9D8Bvjjp7RjjzbEZJ866ewEvfa-82e_HYKTPMxq9eJXMbDqp1dnKtpqoPhcxv9XFlo5m00?></g></svg>